<svg width="240" height="270" viewBox="0 0 240 270" fill="none" xmlns="http://www.w3.org/2000/svg">
  <path d="M 117.734 39.088 C 108.658 41.226, 102.113 46.648, 97.319 56 L 94.500 61.500 94.237 170.452 C 93.945 291.259, 93.557 283.739, 100.572 293.302 C 104.475 298.622, 111.409 303.494, 117.356 305.096 C 119.942 305.792, 153.350 306.123, 217.194 306.086 C 308.361 306.032, 313.354 305.937, 317.334 304.176 C 322.980 301.679, 327.800 296.651, 330.917 290.006 L 333.500 284.500 333.500 170.500 L 333.500 56.500 330.589 51.246 C 328.988 48.356, 326.175 44.845, 324.338 43.444 C 316.835 37.721, 322.221 37.991, 217.782 38.100 C 164.827 38.156, 119.806 38.600, 117.734 39.088 M 117.761 58.062 C 109.933 62.195, 110.532 54.060, 110.230 160.320 C 109.973 250.791, 110.043 255.194, 111.730 254.471 C 112.704 254.053, 115.862 253.251, 118.750 252.689 L 124 251.666 124 153.833 C 124 76.210, 123.742 56.009, 122.750 56.044 C 122.063 56.069, 119.818 56.977, 117.761 58.062 M 133 154 L 133 252 220.032 252 C 314.132 252, 311.716 252.135, 315.296 246.672 C 316.870 244.268, 316.998 237.161, 316.978 153.285 C 316.957 68.778, 316.836 62.353, 315.228 60.367 C 314.277 59.194, 312.517 57.731, 311.316 57.117 C 309.756 56.319, 283.957 56, 221.066 56 L 133 56 133 154 M 232 96.387 C 223.385 99.394, 220.619 100.938, 213.565 106.674 C 199.600 118.029, 191.923 136.446, 193.419 155 C 194.585 169.449, 199.821 180.802, 210.074 191.108 C 227.693 208.820, 254.724 212.833, 276.797 201.014 C 284.761 196.750, 295.831 186.154, 294.527 184.044 C 294.282 183.647, 291.250 183.915, 287.791 184.640 C 272.618 187.819, 259.436 184.701, 246.170 174.794 C 240.218 170.350, 233.216 160.366, 230.534 152.500 C 224.687 135.348, 229.225 115.316, 242.069 101.586 C 245.331 98.098, 248 94.965, 248 94.623 C 248 93.185, 238.018 94.286, 232 96.387 M 166.092 109.623 C 165.092 112.387, 163.858 113.609, 160.891 114.775 C 156.109 116.653, 155.935 118.528, 160.369 120.381 C 164.040 121.915, 167 125.415, 167 128.223 C 167 131.324, 170.756 130.386, 171.477 127.104 C 172.208 123.777, 174.324 121.588, 178.252 120.094 C 182.112 118.627, 181.669 116.566, 177.109 114.775 C 174.142 113.609, 172.908 112.387, 171.908 109.623 C 171.147 107.517, 169.929 106, 169 106 C 168.071 106, 166.853 107.517, 166.092 109.623 M 172.667 174.667 C 172.300 175.033, 172 176.080, 172 176.992 C 172 179.072, 168.366 182.539, 164.750 183.909 C 163.238 184.482, 162 185.421, 162 185.997 C 162 186.572, 163.238 187.569, 164.750 188.212 C 168.623 189.859, 172 193.045, 172 195.052 C 172 197.567, 174.355 199.245, 175.824 197.776 C 176.471 197.129, 177 195.868, 177 194.974 C 177 193.040, 180.429 189.837, 184.230 188.221 C 187.721 186.738, 186.996 184.762, 182.342 183.079 C 179.615 182.093, 178.386 180.847, 177.225 177.891 C 175.791 174.241, 174.211 173.123, 172.667 174.667 M 313.500 265.628 C 311.135 266.639, 290.611 266.920, 216.500 266.959 C 125.075 267.006, 122.412 267.061, 119.299 268.960 C 115.222 271.445, 112.676 276.250, 113.485 279.932 C 114.279 283.546, 118.743 287.779, 123.069 289.020 C 127.736 290.358, 304.251 290.336, 309.074 288.996 C 311.040 288.450, 313.645 286.943, 314.862 285.647 C 316.876 283.503, 317.050 282.435, 316.788 273.819 L 316.500 264.347 313.500 265.628"
    stroke="none" 
    fill="#6B46C1" 
    fill-rule="evenodd"
    transform="translate(-94, -38)"
  />
</svg>